<svg width="30" height="27" viewBox="0 0 30 27" fill="none" xmlns="http://www.w3.org/2000/svg">
<path d="M30 1.47852V24.8281C30 25.6309 29.2567 26.2754 28.346 26.2754H20.6987V16.1152H24.596L25.1786 12.1543H20.692V9.62305C20.692 8.47461 21.0536 7.69531 22.9353 7.69531H25.3326V4.15039C24.9174 4.10352 23.4978 3.99219 21.8371 3.99219C18.3817 3.99219 16.0112 5.83789 16.0112 9.23047V12.1543H12.1004V16.1152H16.0112V26.2812H1.65402C0.743304 26.2812 0 25.6309 0 24.834V1.47852C0 0.681641 0.743304 0.03125 1.65402 0.03125H28.3393C29.2567 0.03125 30 0.681641 30 1.47852Z" fill="black"/>
</svg>
