<svg width="55" height="89" viewBox="0 0 55 89" fill="none" xmlns="http://www.w3.org/2000/svg">
<g clip-path="url(#clip0_0_9)">
<path d="M38.9417 14.9153H35.8929C35.4771 14.9153 35.1307 15.2617 35.1307 15.6775V35.9106V35.9799C35.1307 40.2066 31.7354 43.6019 27.5086 43.6019C23.2819 43.6019 19.8866 40.2066 19.8866 35.9799V35.9106V15.6775C19.8866 15.2617 19.5401 14.9153 19.1244 14.9153H16.0756C15.6598 14.9153 15.3134 15.2617 15.3134 15.6775V35.9799C15.3134 42.6318 20.6488 48.0365 27.3008 48.1751H27.5779H27.8551C34.4378 48.0365 39.8425 42.6318 39.8425 35.9799V15.6775C39.7732 15.2617 39.4267 14.9153 38.9417 14.9153Z" fill="black"/>
<path d="M53.7701 0.43335H1.31651C0.762184 0.43335 0.346436 0.849098 0.346436 1.40343V42.1467V46.9278V87.1861C0.346436 87.7404 0.762184 88.1562 1.31651 88.1562H53.7701C54.3244 88.1562 54.7401 87.7404 54.7401 87.1861V46.9278V42.1467V1.40343C54.7401 0.849098 54.3244 0.43335 53.7701 0.43335ZM4.78108 5.83807V5.35303C4.78108 5.07587 4.98896 4.7987 5.33541 4.7987H5.82045H49.4047H49.8897C50.1669 4.7987 50.4441 5.00658 50.4441 5.35303V5.83807V45.057L28.3401 67.1609L27.9937 67.5074C27.7858 67.7152 27.4394 67.7152 27.2315 67.5074L26.885 67.1609L4.78108 45.057V5.83807ZM50.3055 82.7515V83.2365C50.3055 83.5137 50.0976 83.7908 49.7512 83.7908H49.2661H5.75116H5.26612C4.98896 83.7908 4.71179 83.583 4.71179 83.2365V82.7515V51.2932L26.8157 73.3971C27.1622 73.7436 27.7858 73.7436 28.2016 73.3971L50.3055 51.2932V82.7515Z" fill="black"/>
</g>
<defs>
<clipPath id="clip0_0_9">
<rect width="55" height="88" fill="white" transform="translate(0 0.15625)"/>
</clipPath>
</defs>
</svg>
