<svg width="30" height="27" viewBox="0 0 30 27" fill="none" xmlns="http://www.w3.org/2000/svg">
<path d="M15.0067 6.41797C10.7477 6.41797 7.31248 9.42382 7.31248 13.1504C7.31248 16.8769 10.7477 19.8828 15.0067 19.8828C19.2656 19.8828 22.7009 16.8769 22.7009 13.1504C22.7009 9.42382 19.2656 6.41797 15.0067 6.41797ZM15.0067 17.5273C12.2544 17.5273 10.0044 15.5644 10.0044 13.1504C10.0044 10.7363 12.2477 8.77343 15.0067 8.77343C17.7656 8.77343 20.0089 10.7363 20.0089 13.1504C20.0089 15.5644 17.7589 17.5273 15.0067 17.5273ZM24.8102 6.14258C24.8102 7.01562 24.0067 7.71289 23.0156 7.71289C22.0178 7.71289 21.221 7.00976 21.221 6.14258C21.221 5.27539 22.0245 4.57226 23.0156 4.57226C24.0067 4.57226 24.8102 5.27539 24.8102 6.14258ZM29.9062 7.73632C29.7924 5.63281 29.2433 3.76953 27.4821 2.23437C25.7276 0.699218 23.5982 0.21875 21.1942 0.113281C18.7165 -0.00976561 11.2902 -0.00976561 8.81248 0.113281C6.41516 0.212891 4.2857 0.693359 2.52454 2.22851C0.763379 3.76367 0.220969 5.62695 0.100433 7.73046C-0.0401916 9.89843 -0.0401916 16.3965 0.100433 18.5644C0.214272 20.668 0.763379 22.5312 2.52454 24.0664C4.2857 25.6016 6.40846 26.082 8.81248 26.1875C11.2902 26.3105 18.7165 26.3105 21.1942 26.1875C23.5982 26.0879 25.7276 25.6074 27.4821 24.0664C29.2366 22.5312 29.7857 20.668 29.9062 18.5644C30.0468 16.3965 30.0468 9.90429 29.9062 7.73632ZM26.7053 20.8906C26.183 22.0391 25.1718 22.9238 23.8526 23.3867C21.8772 24.0723 17.1897 23.9141 15.0067 23.9141C12.8236 23.9141 8.12945 24.0664 6.1607 23.3867C4.8482 22.9297 3.83704 22.0449 3.30802 20.8906C2.52454 19.1621 2.70534 15.0605 2.70534 13.1504C2.70534 11.2402 2.53124 7.13281 3.30802 5.41015C3.83034 4.26172 4.8415 3.37695 6.1607 2.91406C8.13614 2.22851 12.8236 2.38672 15.0067 2.38672C17.1897 2.38672 21.8839 2.23437 23.8526 2.91406C25.1651 3.37109 26.1763 4.25586 26.7053 5.41015C27.4888 7.13867 27.308 11.2402 27.308 13.1504C27.308 15.0605 27.4888 19.168 26.7053 20.8906Z" fill="black"/>
</svg>
