<svg width="30" height="26" viewBox="0 0 30 26" fill="none" xmlns="http://www.w3.org/2000/svg">
<path d="M26.9162 7.04594C26.9353 7.31242 26.9353 7.57896 26.9353 7.84545C26.9353 15.9736 20.7487 25.3391 9.44162 25.3391C5.95811 25.3391 2.72209 24.3302 0 22.579C0.494941 22.636 0.970781 22.6551 1.48477 22.6551C4.35908 22.6551 7.00506 21.6843 9.11801 20.0282C6.41496 19.9711 4.14973 18.2008 3.36926 15.7642C3.75 15.8213 4.13068 15.8594 4.53047 15.8594C5.08248 15.8594 5.63455 15.7832 6.14848 15.65C3.33123 15.0789 1.21822 12.6043 1.21822 9.61574V9.53963C2.03672 9.99648 2.98857 10.282 3.99738 10.32C2.34129 9.21596 1.25631 7.33147 1.25631 5.19947C1.25631 4.05736 1.56082 3.01041 2.09385 2.0967C5.12051 5.82766 9.67002 8.26416 14.7715 8.5307C14.6763 8.07385 14.6192 7.59801 14.6192 7.12211C14.6192 3.73375 17.3603 0.973633 20.7677 0.973633C22.538 0.973633 24.1369 1.71602 25.2601 2.91525C26.6496 2.64877 27.9821 2.13479 29.1623 1.43049C28.7054 2.85818 27.7346 4.05742 26.4593 4.81879C27.6966 4.68561 28.8959 4.34289 29.9999 3.86705C29.1625 5.08527 28.1154 6.17025 26.9162 7.04594Z" fill="black"/>
</svg>
